<?xml version="1.0" encoding="utf-8"?>
<!-- Generator: Adobe Illustrator 15.1.0, SVG Export Plug-In . SVG Version: 6.00 Build 0)  -->
<!DOCTYPE svg PUBLIC "-//W3C//DTD SVG 1.1//EN" "http://www.w3.org/Graphics/SVG/1.1/DTD/svg11.dtd">
<svg version="1.1" id="Layer_1" xmlns="http://www.w3.org/2000/svg" xmlns:xlink="http://www.w3.org/1999/xlink" x="0px" y="0px"
	 width="200px" height="50px" viewBox="0 0 200 50" enable-background="new 0 0 200 50" xml:space="preserve">
<path fill="#FFFFFF" d="M21.984,4.089c-11.328,0-20.512,9.184-20.512,20.513c0,1.976,0.28,3.886,0.802,5.695
	c0,0,1.052,1.48,2.489,1.262c1.437-0.217,1.688-1.768,1.688-1.768c-0.669-1.77-0.593-3.184-0.593-5.189
	c0-8.907,7.22-16.127,16.126-16.127c8.907,0,16.127,7.22,16.127,16.127c0,8.906-7.704,13.427-15.082,12.468
	s-7.248-2.768-7.923-6.381c-0.196-4.965,2.003-8.711,2.003-8.711s0.588-1.023,1.829-1.045s1.394,0.958,1.394,0.958
	s-1.573,6.449-1.568,8.275c0.06,0.373,0.762,1.416,2.09,1.48c1.329,0.066,2.51-1.07,2.701-1.48c0.19-0.41,1.655-8.536,1.655-8.536
	s0.501-1.329,1.568-1.481s1.486,0.52,1.655,0.784c0.168,0.266-1.829,9.145-1.829,9.145s-0.24,1.982,1.916,2.266
	s2.787-1.568,2.787-1.568l2.003-10.191c0,0,0.262-3.136-3.31-4.441c-3.894-1.426-6.533,2.003-6.533,2.003
	c-1.307-2.091-4.268-2.526-6.097-1.307c-3.048-2.7-4.442,0.609-4.442,0.609s-0.8,2.059-1.16,4.345
	c-0.182,0.591-1.4,7.722-0.398,11.351c0.807,2.922,2.139,7.125,11.658,8.313c9.519,1.186,19.467-5.527,19.467-16.855
	C42.497,13.273,33.313,4.089,21.984,4.089z"/>
<g>
	<path fill="#FFFFFF" d="M52.645,24.155c2.053-0.645,1.496-4.517,3.636-4.517c2.64,0,2.61,4.282,4.135,4.282
		c1.378,0,3.137-3.842,4.838-3.842c0.674,0,1.261,0.47,1.613,1.437c0.968,2.552,1.73,5.161,2.493,7.743
		c0.059,0.234,0.118,0.439,0.118,0.645c0,0.615-0.558,1.467-1.555,1.467c-1.965,0-2.903-4.516-3.724-4.516
		c-0.323,0-0.646,0.322-1.202,0.879c-0.968,0.969-1.818,1.438-2.581,1.438c-0.821,0-1.672-0.529-2.669-1.613
		c-0.909-0.967-1.349-1.467-1.73-1.467c-0.528,0-0.968,1.584-1.877,3.988c-0.352,0.91-0.762,1.73-1.818,1.73
		c-1.29,0-2.434-1.145-2.434-2.463c0-0.176,0.029-0.383,0.029-0.705C50.68,27.205,50.123,24.947,52.645,24.155z"/>
	<path fill="#FFFFFF" d="M71.824,26.529c0-2.316,3.167-6.773,7.038-6.773c2.17,0,3.637,1.378,3.637,3.167
		c0,1.936-1.818,3.137-3.402,3.811c-0.469,0.207-1.026,0.324-1.026,0.822c0,0.82,1.202,0.85,1.496,0.85
		c0.674,0,1.261-0.41,1.76-0.41c0.821,0,1.671,0.998,1.671,1.76c0,2.023-2.933,2.521-4.105,2.521
		C74.845,32.277,71.824,29.229,71.824,26.529z"/>
	<path fill="#FFFFFF" d="M87.514,24.155c2.053-0.645,1.496-4.517,3.636-4.517c2.64,0,2.61,4.282,4.135,4.282
		c1.378,0,3.138-3.842,4.838-3.842c0.674,0,1.261,0.47,1.614,1.437c0.967,2.552,1.729,5.161,2.492,7.743
		c0.059,0.234,0.117,0.439,0.117,0.645c0,0.615-0.558,1.467-1.555,1.467c-1.965,0-2.903-4.516-3.724-4.516
		c-0.323,0-0.645,0.322-1.202,0.879c-0.968,0.969-1.818,1.438-2.581,1.438c-0.821,0-1.671-0.529-2.669-1.613
		c-0.909-0.967-1.349-1.467-1.73-1.467c-0.528,0-0.968,1.584-1.877,3.988c-0.352,0.91-0.762,1.73-1.818,1.73
		c-1.291,0-2.434-1.145-2.434-2.463c0-0.176,0.029-0.383,0.029-0.705C85.549,27.205,84.992,24.947,87.514,24.155z"/>
	<path fill="#FFFFFF" d="M115.755,28.525c-1.584,1.436-3.344,2.229-4.545,2.229c-2.259,0-4.517-3.783-4.517-7.538
		c0-1.144,0.675-2.082,1.495-2.082c1.203,0,2.405,1.378,2.405,2.347c0.352,1.993,0.322,2.931,1.144,2.931
		c0.498,0,4.223-1.26,5.924-3.284c0.498-0.616,1.084-0.909,1.643-0.909c1.495,0,2.082,1.994,2.17,4.427
		c0.117,3.637,1.29,7.273,1.29,10.969c0,0.41,0.029,0.879,0.029,1.348c0,1.35-0.177,2.67-1.555,2.67
		c-2.229-0.117-2.053-2.082-2.11-3.988c0-3.52-0.646-6.92-1.584-10.41C116.605,27.527,116.194,28.113,115.755,28.525z"/>
	<path fill="#FFFFFF" d="M124.554,26.324c0-2.433,3.782-4.31,6.158-5.161c0.146-0.059,0.322-0.059,0.498-0.059
		c0.997,0,2.316,0.88,2.316,1.818c0,1.144,0.439,1.642,1.232,2.258c1.113,0.909,2.551,2.844,2.551,3.667
		c0,0.938-0.821,1.465-1.496,1.465c-1.729,0-3.107-1.965-4.604-1.965c-0.997,0-2.346,0.793-3.52,0.793
		c-1.289,0-3.107-0.881-3.107-2.611C124.583,26.471,124.554,26.383,124.554,26.324z"/>
	<path fill="#FFFFFF" d="M139.656,31.516c0.616-2.904,1.349-5.748,1.759-8.739c0.353-2.698,2.934-4.429,5.66-4.429
		c3.52,0,6.041,2.933,6.041,5.455c0,2.697-2.727,5.542-6.451,5.777c-2.522,0.264-2.376,0.352-3.051,2.639
		c-0.732,2.404-0.703,4.867-1.466,7.244c-0.646,2.023,0.382,5.895-1.7,5.895c-1.467,0-2.258-2.082-2.258-3.344
		c0-0.498,0.058-1.025,0.058-1.555c0-0.176-0.028-0.381-0.028-0.557C138.601,37.205,138.981,34.33,139.656,31.516z M147.837,22.63
		c-0.645,0-1.729,0.352-1.729,1.318c0,0.382,0.294,0.588,0.646,0.588c0.732,0,1.73-0.499,1.906-1.408
		C148.425,22.835,148.189,22.63,147.837,22.63z"/>
	<path fill="#FFFFFF" d="M166.489,26.941c0,0.557,0.059,1.201,0.264,1.877c0.059,0.145,0.088,0.293,0.088,0.439
		c0,0.645-0.586,1.143-1.261,1.143c-1.906,0-3.021-2.082-3.021-3.666c-0.176-0.029-0.352-0.029-0.558-0.029
		c-0.616,0-1.378,0.09-2.082,0.207c-0.058,2.082-0.41,4.75-1.906,4.75c-1.466,0-2.258-2.258-2.258-4.457
		c0-0.176,0-0.324,0.029-0.471c-0.146-0.791-0.322-1.993-0.322-3.167c0-2.17,0.646-3.724,2.111-3.724c1.817,0,2.17,1.73,2.346,3.46
		c0.411-0.088,0.792-0.117,1.144-0.117c0.47,0,0.909,0.059,1.379,0.234c0.059-0.498,0.205-0.938,0.264-1.73
		c0-1.026,0.527-1.817,1.672-1.817c1.848,0,2.258,2.757,2.258,3.431c0,0.411-0.029,1.085-0.088,2.464
		C166.519,26.119,166.489,26.5,166.489,26.941z"/>
	<path fill="#FFFFFF" d="M176.226,29.082c-0.558,1.377-1.936,2.639-3.314,2.639c-1.437,0-3.137-3.754-3.137-5.806
		c0-0.792,0.176-2.434,1.348-2.434c0.471,0,0.881,0.615,1.262,0.791c0.791,0.381,0.791,1.701,1.789,1.701
		c1.349,0,2.375-1.936,3.343-2.698c0.528-0.439,1.085-0.674,1.612-0.674c0.764,0,1.379,0.527,1.613,1.583
		c0.176,2.169,0.176,4.517,0.469,6.041c0.029,0.117,0.029,0.205,0.029,0.293c0,0.734-0.674,1.496-1.612,1.496
		c-1.906,0-1.026-4.018-1.965-4.486C176.665,27.762,176.46,28.496,176.226,29.082z"/>
	<path fill="#FFFFFF" d="M186.665,29.434c-0.908,0-3.665-1.438-3.665-3.051c0-0.264,0.117-0.557,0.352-0.82
		c0.558-0.587,0.763-1.32,0.763-2.082c0-1.467-0.733-2.67-0.733-3.578c0-1.114,0.763-1.994,1.877-1.994
		c0.851,0,1.701,0.527,2.346,1.407c0.499,1.262,0.587,2.874,1.701,2.874c0.909,0,2.64-0.821,3.606-0.821
		c1.027,0,2.728,0.763,2.728,2.112c0,0.908-2.082,0.85-2.082,2.082c0,1.142,0.821,2.199,2.054,2.345
		c0.527,0.059,0.996,0.029,1.348,0.469c0.47,0.586,0.91,1.086,0.91,1.76c0,1.174-1.086,1.789-1.965,1.789
		c-2.757,0-4.546-2.17-6.306-3.93C188.483,28.963,187.546,29.434,186.665,29.434z"/>
</g>
</svg>
