<?xml version="1.0" encoding="utf-8"?>
<!-- Generator: Adobe Illustrator 15.1.0, SVG Export Plug-In . SVG Version: 6.00 Build 0)  -->
<!DOCTYPE svg PUBLIC "-//W3C//DTD SVG 1.1//EN" "http://www.w3.org/Graphics/SVG/1.1/DTD/svg11.dtd">
<svg version="1.1" id="Layer_1" xmlns="http://www.w3.org/2000/svg" xmlns:xlink="http://www.w3.org/1999/xlink" x="0px" y="0px"
	 width="50px" height="50px" viewBox="0 0 50 50" enable-background="new 0 0 50 50" xml:space="preserve">
<path fill="#C95647" d="M28.168,6.221c-11.506,0-20.833,9.328-20.833,20.833c0,2.008,0.284,3.948,0.814,5.785
	c0,0,1.068,1.504,2.528,1.281c1.459-0.221,1.714-1.795,1.714-1.795c-0.679-1.798-0.603-3.234-0.603-5.271
	c0-9.046,7.334-16.379,16.379-16.379c9.047,0,16.38,7.333,16.38,16.379c0,9.047-7.825,13.639-15.318,12.665
	c-7.494-0.975-7.362-2.812-8.048-6.48c-0.198-5.043,2.035-8.848,2.035-8.848s0.598-1.04,1.858-1.062
	c1.26-0.023,1.416,0.972,1.416,0.972s-1.599,6.551-1.593,8.405c0.061,0.378,0.773,1.438,2.122,1.504
	c1.35,0.066,2.55-1.087,2.744-1.504c0.192-0.417,1.681-8.67,1.681-8.67s0.51-1.35,1.593-1.504c1.084-0.154,1.51,0.529,1.682,0.797
	c0.17,0.27-1.858,9.288-1.858,9.288s-0.245,2.014,1.945,2.303s2.832-1.594,2.832-1.594l2.034-10.35c0,0,0.266-3.186-3.361-4.511
	c-3.956-1.449-6.637,2.034-6.637,2.034c-1.327-2.124-4.335-2.565-6.192-1.328c-3.096-2.742-4.511,0.619-4.511,0.619
	s-0.813,2.091-1.178,4.413c-0.186,0.601-1.422,7.843-0.404,11.528c0.82,2.969,2.172,7.238,11.84,8.444
	C38.896,45.382,49,38.563,49,27.057C49.002,15.549,39.675,6.221,28.168,6.221z"/>
<path fill="#FFFFFF" d="M24.477,4.28c-11.505,0-20.833,9.328-20.833,20.835c0,2.007,0.284,3.947,0.814,5.783
	c0,0,1.069,1.503,2.528,1.282c1.459-0.221,1.714-1.796,1.714-1.796c-0.679-1.798-0.602-3.233-0.602-5.27
	c0-9.048,7.333-16.381,16.378-16.381c9.046,0,16.381,7.333,16.381,16.381c0,9.044-7.826,13.638-15.319,12.663
	c-7.494-0.975-7.362-2.812-8.047-6.48c-0.199-5.043,2.034-8.848,2.034-8.848s0.598-1.039,1.858-1.061
	c1.261-0.023,1.416,0.973,1.416,0.973s-1.598,6.551-1.593,8.404c0.061,0.379,0.773,1.438,2.122,1.504
	c1.35,0.067,2.549-1.086,2.744-1.504c0.192-0.416,1.681-8.67,1.681-8.67s0.51-1.35,1.592-1.504c1.086-0.154,1.51,0.529,1.683,0.797
	c0.171,0.27-1.858,9.288-1.858,9.288s-0.244,2.014,1.946,2.302c2.189,0.288,2.829-1.593,2.829-1.593l2.036-10.351
	c0,0,0.266-3.186-3.361-4.511c-3.957-1.449-6.637,2.035-6.637,2.035c-1.327-2.124-4.334-2.566-6.192-1.329
	c-3.096-2.742-4.512,0.619-4.512,0.619s-0.813,2.092-1.178,4.414c-0.185,0.6-1.422,7.843-0.404,11.528
	c0.82,2.967,2.172,7.236,11.84,8.443c9.667,1.205,19.772-5.612,19.772-17.119C45.313,13.608,35.983,4.28,24.477,4.28z"/>
</svg>
